<svg xmlns="http://www.w3.org/2000/svg" version="1.1" xmlns:xlink="http://www.w3.org/1999/xlink" xmlns:svgjs="http://svgjs.dev/svgjs" width="2000" height="626" viewBox="0 0 2000 626"><g transform="matrix(1,0,0,1,-1.2121212121212466,0.14335990849241398)"><svg viewBox="0 0 396 124" data-background-color="#ffffff" preserveAspectRatio="xMidYMid meet" height="626" width="2000" xmlns="http://www.w3.org/2000/svg" xmlns:xlink="http://www.w3.org/1999/xlink"><g id="tight-bounds" transform="matrix(1,0,0,1,0.2400000000000091,-0.02839717037230116)"><svg viewBox="0 0 395.52 124.0567943407446" height="124.0567943407446" width="395.52"><g><svg viewBox="0 0 395.52 124.0567943407446" height="124.0567943407446" width="395.52"><g><svg viewBox="0 0 395.52 124.0567943407446" height="124.0567943407446" width="395.52"><g id="textblocktransform"><svg viewBox="0 0 395.52 124.0567943407446" height="124.0567943407446" width="395.52" id="textblock"><g><svg viewBox="0 0 395.52 66.91030698889614" height="66.91030698889614" width="395.52"><g transform="matrix(1,0,0,1,0,0)"><svg width="395.52" viewBox="2.85 -38.75 306.16999999999996 51.800000000000004" height="66.91030698889614" data-palette-color="#233848"><path d="M13.6-3Q13.2-1.25 12.38-0.3 11.55 0.65 9.7 0.65L9.7 0.65Q8.15 0.65 7.43 0.13 6.7-0.4 6.7-1.65L6.7-1.65Q6.7-2.2 6.85-2.7L6.85-2.7 12.95-26.9Q12.9-26.9 9.7-26.55L9.7-26.55Q5.85-26.25 4.9-26.05L4.9-26.05Q3.9-26.4 3.38-27.13 2.85-27.85 2.85-28.85L2.85-28.85Q2.85-29.65 3.43-30.38 4-31.1 4.8-31.45L4.8-31.45Q7.3-31.95 11.8-32.3 16.3-32.65 23.35-33.05L23.35-33.05Q26.95-33.2 28.2-33.35L28.2-33.35Q29-33 29.58-32.27 30.15-31.55 30.15-30.75L30.15-30.75Q30.15-29.85 29.25-29 28.35-28.15 27.2-27.8L27.2-27.8 18.45-27.35Q19-27.15 19-26L19-26Q19-25.4 18.9-25.1L18.9-25.1Q18.05-21.3 16.57-15.25 15.1-9.2 14.6-7.05L14.6-7.05Q14.3-5.8 14.05-4.8 13.8-3.8 13.6-3L13.6-3ZM34.55-29.7Q34.55-31.25 35.52-32.45 36.5-33.65 38.25-33.65L38.25-33.65Q40.1-33.65 41.47-32.5 42.85-31.35 42.85-29.9L42.85-29.9Q42.85-28.45 41.45-27.4 40.05-26.35 38.2-26.35L38.2-26.35Q36.4-26.35 35.47-27.28 34.55-28.2 34.55-29.7L34.55-29.7ZM39.8-20.85Q37.15-10.05 35.75-4.6L35.75-4.6Q35.55-3.8 35.55-2.85L35.55-2.85 35.6-1.45Q35.6-0.6 35.07-0.25 34.55 0.1 32.85 0.15L32.85 0.15Q31.2 0.15 30.35-0.2 29.5-0.55 29.5-1.7L29.5-1.7Q29.5-2.25 30.77-7.55 32.05-12.85 34.25-21.35L34.25-21.35 33.1-22.85Q32.95-23 32.95-23.2L32.95-23.2Q32.95-23.7 34.05-24.03 35.15-24.35 37.1-24.35L37.1-24.35Q38.8-24.35 39.27-23.38 39.75-22.4 39.8-20.85L39.8-20.85ZM45.74-22.85Q45.59-23 45.59-23.2L45.59-23.2Q45.59-23.7 46.7-24.03 47.8-24.35 49.74-24.35L49.74-24.35Q51.55-24.35 52.39-23.43 53.24-22.5 53.39-21.2L53.39-21.2 52.49-17.95Q53.55-19.4 55.45-20.73 57.34-22.05 59.3-22.85 61.25-23.65 62.5-23.65L62.5-23.65Q65.14-23.65 66.34-22.68 67.55-21.7 67.55-19.6L67.55-19.6Q64.59-11.9 63.64-3L63.64-3 64.34-0.55Q63.75 0.6 62.67 1.28 61.59 1.95 59.55 1.95L59.55 1.95Q58.34 1.95 57.8 1.15 57.24 0.35 57.24-0.85L57.24-0.85Q57.24-4.2 58.22-8.22 59.2-12.25 60.5-16.45L60.5-16.45Q61-18.05 61-18.1L61-18.1Q61-18.8 60.2-18.8L60.2-18.8Q59.09-18.8 56.87-17.25 54.64-15.7 52.3-12.03 49.95-8.35 48.49-2.4L48.49-2.4Q48.39-2.1 48.24-1.3 48.09-0.5 47.45-0.18 46.8 0.15 45.34 0.15L45.34 0.15Q43.7 0.15 42.92-0.2 42.14-0.55 42.14-1.7L42.14-1.7Q42.3-2.4 42.59-3.4L42.59-3.4Q45.49-15.05 47.05-21.35L47.05-21.35 45.74-22.85ZM83.54-2.1Q81.84-0.5 80.24 0.28 78.64 1.05 76.64 1.05L76.64 1.05Q73.34 1.05 71.57-1 69.79-3.05 69.79-6.45L69.79-6.45Q69.79-7.45 70.09-8.65L70.09-8.65 73.44-21.7Q73.74-22.8 74.52-23.33 75.29-23.85 77.04-23.85L77.04-23.85Q79.64-23.85 79.64-22.4L79.64-22.4Q79.64-21.8 79.29-20.5L79.29-20.5 75.94-7.1Q75.79-6.5 75.79-5.9L75.79-5.9Q75.79-4.85 76.34-4.2 76.89-3.55 78.09-3.55L78.09-3.55Q79.64-3.55 81.44-4.45 83.24-5.35 84.49-6.65L84.49-6.65 85.44-10.6Q86.39-14.6 87.64-19.25L87.64-19.25Q88.19-21.25 89.07-22.53 89.94-23.8 91.84-23.8L91.84-23.8Q94.49-23.8 94.49-22.2L94.49-22.2Q94.49-21.95 94.37-21.58 94.24-21.2 94.19-20.95L94.19-20.95 92.54-14.1Q89.94-3.2 89.14-0.15L89.14-0.15Q87.84 4.85 86.19 7.7 84.54 10.55 82.07 11.8 79.59 13.05 75.74 13.05L75.74 13.05Q73.29 13.05 71.72 12.35 70.14 11.65 69.42 10.65 68.69 9.65 68.69 8.8L68.69 8.8Q68.69 6.35 71.39 6.35L71.39 6.35Q72.14 6.35 72.62 6.65 73.09 6.95 73.59 7.5L73.59 7.5Q74.34 8.2 74.97 8.55 75.59 8.9 76.69 8.9L76.69 8.9Q77.54 8.9 78.59 8.2 79.64 7.5 80.64 6 81.64 4.5 82.29 2.25L82.29 2.25 83.54-2.1ZM121.09-3Q120.69-1.25 119.86-0.3 119.04 0.65 117.19 0.65L117.19 0.65Q115.64 0.65 114.91 0.13 114.19-0.4 114.19-1.65L114.19-1.65Q114.19-2.2 114.34-2.7L114.34-2.7 120.44-26.9Q120.39-26.9 117.19-26.55L117.19-26.55Q113.34-26.25 112.39-26.05L112.39-26.05Q111.39-26.4 110.86-27.13 110.34-27.85 110.34-28.85L110.34-28.85Q110.34-29.65 110.91-30.38 111.49-31.1 112.29-31.45L112.29-31.45Q114.79-31.95 119.29-32.3 123.79-32.65 130.84-33.05L130.84-33.05Q134.44-33.2 135.69-33.35L135.69-33.35Q136.49-33 137.06-32.27 137.64-31.55 137.64-30.75L137.64-30.75Q137.64-29.85 136.74-29 135.84-28.15 134.69-27.8L134.69-27.8 125.94-27.35Q126.49-27.15 126.49-26L126.49-26Q126.49-25.4 126.39-25.1L126.39-25.1Q125.54-21.3 124.06-15.25 122.59-9.2 122.09-7.05L122.09-7.05Q121.79-5.8 121.54-4.8 121.29-3.8 121.09-3L121.09-3ZM142.04-29.7Q142.04-31.25 143.01-32.45 143.99-33.65 145.74-33.65L145.74-33.65Q147.59-33.65 148.96-32.5 150.34-31.35 150.34-29.9L150.34-29.9Q150.34-28.45 148.94-27.4 147.54-26.35 145.69-26.35L145.69-26.35Q143.89-26.35 142.96-27.28 142.04-28.2 142.04-29.7L142.04-29.7ZM147.29-20.85Q144.64-10.05 143.24-4.6L143.24-4.6Q143.04-3.8 143.04-2.85L143.04-2.85 143.09-1.45Q143.09-0.6 142.56-0.25 142.04 0.1 140.34 0.15L140.34 0.15Q138.69 0.15 137.84-0.2 136.99-0.55 136.99-1.7L136.99-1.7Q136.99-2.25 138.26-7.55 139.54-12.85 141.74-21.35L141.74-21.35 140.59-22.85Q140.44-23 140.44-23.2L140.44-23.2Q140.44-23.7 141.54-24.03 142.64-24.35 144.59-24.35L144.59-24.35Q146.29-24.35 146.76-23.38 147.24-22.4 147.29-20.85L147.29-20.85ZM155.88-1.9Q155.83-1.6 155.66-0.73 155.48 0.15 154.81 0.5 154.13 0.85 152.68 0.85L152.68 0.85Q151.03 0.85 150.28 0.5 149.53 0.15 149.53-1L149.53-1 151.93-10.55Q153.93-18.8 154.58-21.05L154.58-21.05 153.33-22.55Q153.18-22.7 153.18-22.9L153.18-22.9Q153.18-23.4 154.28-23.73 155.38-24.05 157.33-24.05L157.33-24.05Q159.08-24.05 159.68-23.08 160.28-22.1 160.43-20.55L160.43-20.55 160.08-19.25Q161.68-21.2 163.81-22.48 165.93-23.75 167.58-23.75L167.58-23.75Q169.73-23.75 170.93-23 172.13-22.25 172.13-21.05L172.13-21.05Q172.13-20 171.41-18.88 170.68-17.75 169.58-16.98 168.48-16.2 167.43-16.1L167.43-16.1Q166.43-16.1 166.08-16.35 165.73-16.6 165.73-17.1L165.73-17.1 166.03-18.75Q162.03-17.65 158.78-13.45L158.78-13.45 155.88-1.9ZM179.68 1.05Q174.78 1.05 172.53-0.9 170.28-2.85 170.28-6.1L170.28-6.1Q170.28-10.85 172.66-14.9 175.03-18.95 179.01-21.33 182.98-23.7 187.58-23.7L187.58-23.7Q190.38-23.7 192.28-22.13 194.18-20.55 194.18-17.5L194.18-17.5Q194.18-15.75 193.06-14.63 191.93-13.5 189.83-12.63 187.73-11.75 183.03-10.15L183.03-10.15Q178.78-8.75 176.13-7.8L176.13-7.8Q175.93-7.05 175.93-6.25L175.93-6.25Q175.93-4.85 177.11-4.1 178.28-3.35 180.43-3.35L180.43-3.35Q181.78-3.35 183.53-3.9 185.28-4.45 185.73-5.3L185.73-5.3Q187.43-8.4 188.83-8.4L188.83-8.4Q190.88-8.4 191.61-7.63 192.33-6.85 192.38-5.9L192.38-5.9Q191.78-4.3 190.03-2.68 188.28-1.05 185.58 0 182.88 1.05 179.68 1.05L179.68 1.05ZM177.53-12.4Q182.48-14 185.68-15.38 188.88-16.75 188.88-18.1L188.88-18.1Q188.88-18.7 188.23-19.07 187.58-19.45 186.83-19.45L186.83-19.45Q185.33-19.45 183.41-18.3 181.48-17.15 179.83-15.5 178.18-13.85 177.53-12.4L177.53-12.4ZM221.88-3Q221.48-1.25 220.65-0.3 219.83 0.65 217.98 0.65L217.98 0.65Q216.43 0.65 215.7 0.13 214.98-0.4 214.98-1.65L214.98-1.65Q214.98-2.2 215.13-2.7L215.13-2.7 221.23-26.9Q221.18-26.9 217.98-26.55L217.98-26.55Q214.13-26.25 213.18-26.05L213.18-26.05Q212.18-26.4 211.65-27.13 211.13-27.85 211.13-28.85L211.13-28.85Q211.13-29.65 211.7-30.38 212.28-31.1 213.08-31.45L213.08-31.45Q215.58-31.95 220.08-32.3 224.58-32.65 231.63-33.05L231.63-33.05Q235.23-33.2 236.48-33.35L236.48-33.35Q237.28-33 237.85-32.27 238.43-31.55 238.43-30.75L238.43-30.75Q238.43-29.85 237.53-29 236.63-28.15 235.48-27.8L235.48-27.8 226.73-27.35Q227.28-27.15 227.28-26L227.28-26Q227.28-25.4 227.18-25.1L227.18-25.1Q226.33-21.3 224.85-15.25 223.38-9.2 222.88-7.05L222.88-7.05Q222.58-5.8 222.33-4.8 222.08-3.8 221.88-3L221.88-3ZM242.87-1.9Q242.82-1.6 242.65-0.73 242.47 0.15 241.8 0.5 241.12 0.85 239.67 0.85L239.67 0.85Q238.02 0.85 237.27 0.5 236.52 0.15 236.52-1L236.52-1 238.92-10.55Q240.92-18.8 241.57-21.05L241.57-21.05 240.32-22.55Q240.17-22.7 240.17-22.9L240.17-22.9Q240.17-23.4 241.27-23.73 242.37-24.05 244.32-24.05L244.32-24.05Q246.07-24.05 246.67-23.08 247.27-22.1 247.42-20.55L247.42-20.55 247.07-19.25Q248.67-21.2 250.8-22.48 252.92-23.75 254.57-23.75L254.57-23.75Q256.72-23.75 257.92-23 259.12-22.25 259.12-21.05L259.12-21.05Q259.12-20 258.4-18.88 257.67-17.75 256.57-16.98 255.47-16.2 254.42-16.1L254.42-16.1Q253.42-16.1 253.07-16.35 252.72-16.6 252.72-17.1L252.72-17.1 253.02-18.75Q249.02-17.65 245.77-13.45L245.77-13.45 242.87-1.9ZM266.67 1.05Q261.77 1.05 259.52-0.9 257.27-2.85 257.27-6.1L257.27-6.1Q257.27-10.85 259.65-14.9 262.02-18.95 266-21.33 269.97-23.7 274.57-23.7L274.57-23.7Q277.37-23.7 279.27-22.13 281.17-20.55 281.17-17.5L281.17-17.5Q281.17-15.75 280.05-14.63 278.92-13.5 276.82-12.63 274.72-11.75 270.02-10.15L270.02-10.15Q265.77-8.75 263.12-7.8L263.12-7.8Q262.92-7.05 262.92-6.25L262.92-6.25Q262.92-4.85 264.1-4.1 265.27-3.35 267.42-3.35L267.42-3.35Q268.77-3.35 270.52-3.9 272.27-4.45 272.72-5.3L272.72-5.3Q274.42-8.4 275.82-8.4L275.82-8.4Q277.87-8.4 278.6-7.63 279.32-6.85 279.37-5.9L279.37-5.9Q278.77-4.3 277.02-2.68 275.27-1.05 272.57 0 269.87 1.05 266.67 1.05L266.67 1.05ZM264.52-12.4Q269.47-14 272.67-15.38 275.87-16.75 275.87-18.1L275.87-18.1Q275.87-18.7 275.22-19.07 274.57-19.45 273.82-19.45L273.82-19.45Q272.32-19.45 270.4-18.3 268.47-17.15 266.82-15.5 265.17-13.85 264.52-12.4L264.52-12.4ZM308.17-22.4Q308.37-22.1 308.69-21.28 309.02-20.45 309.02-20L309.02-20Q309.02-19.75 308.97-19.7L308.97-19.7Q308.72-19.4 307.82-19.2 306.92-19 306.62-18.95L306.62-18.95Q305.07-17.95 301.69-15.78 298.32-13.6 296.77-12.6L296.77-12.6Q296.87-11.4 298.57-8.93 300.27-6.45 302.22-4.25 304.17-2.05 304.57-2.05L304.57-2.05Q305.02-2.05 305.69-1.3 306.37-0.55 306.37 0.05L306.37 0.05Q306.37 0.6 305.67 0.75L305.67 0.75Q305.22 0.85 303.99 1.1 302.77 1.35 301.87 1.35L301.87 1.35Q301.07 1.35 300.62 1.15L300.62 1.15Q299.47 0.75 297.49-1.53 295.52-3.8 293.72-6.63 291.92-9.45 291.37-11.5L291.37-11.5Q289.77-5.05 289.12-2.68 288.47-0.3 288.07 0.43 287.67 1.15 287.12 1.15L287.12 1.15 285.72 1.2Q282.42 1.2 282.27-1.45L282.27-1.45Q283.27-3.9 283.67-5.5L283.67-5.5Q288.62-23.85 290.72-33.15L290.72-33.15Q290.67-33.9 290.62-35.23 290.57-36.55 290.57-37.3L290.57-37.3Q290.72-37.95 291.69-38.35 292.67-38.75 293.47-38.75L293.47-38.75Q294.72-38.75 296.12-37.9 297.52-37.05 297.57-35.85L297.57-35.85 293.12-18.4 292.27-14.95Q293.32-16.25 295.84-18.15 298.37-20.05 301.04-21.55 303.72-23.05 305.32-23.35L305.32-23.35Q305.72-23.35 306.79-23.1 307.87-22.85 308.17-22.4L308.17-22.4Z" opacity="1" transform="matrix(1,0,0,1,0,0)" fill="#000000" class="wordmark-text-0" data-fill-palette-color="primary" id="text-0"></path></svg></g></svg></g><g transform="matrix(1,0,0,1,104.19507288999388,82.70622462160678)"><svg viewBox="0 0 187.12985422001222 41.350569719137816" height="41.350569719137816" width="187.12985422001222"><g transform="matrix(1,0,0,1,0,0)"><svg width="187.12985422001222" viewBox="1.75 -47 315.62 69.75" height="41.350569719137816" data-palette-color="#92a2ae"><path d="M42.05-41.5Q43.6-41.2 44.38-40.45 45.15-39.7 45.15-38.7L45.15-38.7Q45.15-37.05 44.23-36.3 43.3-35.55 41.3-35.7L41.3-35.7Q36.8-36.05 34.27-36.18 31.75-36.3 27.65-36.35L27.65-36.35Q25.8-27.15 24.25-17.85L24.25-17.85Q23.7-14.45 23.1-9.98 22.5-5.5 22.3-2.75L22.3-2.75Q22.2-1.3 21.1-0.53 20 0.25 18.45 0.25L18.45 0.25Q16.8 0.25 15.9-0.55 15-1.35 15-2.65L15-2.65Q15-3.85 15.38-6.63 15.75-9.4 16.25-12.45L16.25-12.45Q16.8-15.5 17.1-17.75L17.1-17.75Q17.65-21.55 18.35-25.3 19.05-29.05 19.75-32.4L19.75-32.4Q19.9-33.15 20.1-34.13 20.3-35.1 20.55-36.3L20.55-36.3Q15.65-36.15 12.85-35.5 10.05-34.85 8.88-33.68 7.7-32.5 7.7-30.65L7.7-30.65Q7.7-28.95 8.7-27.4L8.7-27.4Q8.9-27.05 8.9-26.65L8.9-26.65Q8.9-25.7 7.78-24.88 6.65-24.05 5.45-24.05L5.45-24.05Q4.6-24.05 4.05-24.55L4.05-24.55Q3.05-25.4 2.4-26.98 1.75-28.55 1.75-30.55L1.75-30.55Q1.75-34.8 4.53-37.38 7.3-39.95 12.98-41.15 18.65-42.35 27.55-42.35L27.55-42.35Q33.05-42.35 36.33-42.15 39.6-41.95 42.05-41.5L42.05-41.5ZM42.3-26.6Q40.2-26.6 39.15-27.58 38.1-28.55 38.1-30.3L38.1-30.3Q38.1-32.05 39.47-33.23 40.85-34.4 42.9-34.4L42.9-34.4Q44.75-34.4 45.9-33.5 47.05-32.6 47.05-30.95L47.05-30.95Q47.05-28.95 45.75-27.78 44.45-26.6 42.3-26.6L42.3-26.6ZM41.9 0.25Q38.65 0.25 37.17-2.05 35.7-4.35 35.7-8.15L35.7-8.15Q35.7-10.4 36.27-13.93 36.85-17.45 37.75-20.5L37.75-20.5Q38.2-22.1 38.95-22.7 39.7-23.3 41.35-23.3L41.35-23.3Q43.9-23.3 43.9-21.6L43.9-21.6Q43.9-20.35 42.95-15.8L42.95-15.8Q41.75-10.3 41.75-8.35L41.75-8.35Q41.75-6.85 42.15-6.05 42.55-5.25 43.5-5.25L43.5-5.25Q44.4-5.25 45.75-6.5 47.1-7.75 49.35-10.45L49.35-10.45Q49.95-11.15 50.7-11.15L50.7-11.15Q51.35-11.15 51.72-10.55 52.1-9.95 52.1-8.9L52.1-8.9Q52.1-6.9 51.15-5.8L51.15-5.8Q46.2 0.25 41.9 0.25L41.9 0.25ZM51.6 0.25Q49.7 0.25 48.92-1.75 48.15-3.75 48.15-8.15L48.15-8.15Q48.15-14.65 50-20.5L50-20.5Q50.45-21.95 51.47-22.63 52.5-23.3 54.35-23.3L54.35-23.3Q55.35-23.3 55.75-23.05 56.15-22.8 56.15-22.1L56.15-22.1Q56.15-21.3 55.4-18.5L55.4-18.5Q54.9-16.5 54.6-15 54.3-13.5 54.1-11.3L54.1-11.3Q55.75-15.6 57.8-18.3 59.85-21 61.82-22.15 63.8-23.3 65.45-23.3L65.45-23.3Q68.7-23.3 68.7-20.05L68.7-20.05Q68.7-18.1 67.6-13L67.6-13Q66.65-8.65 66.65-7.25L66.65-7.25Q66.65-5.25 68.1-5.25L68.1-5.25Q69.1-5.25 70.47-6.48 71.85-7.7 74.15-10.45L74.15-10.45Q74.75-11.15 75.5-11.15L75.5-11.15Q76.15-11.15 76.52-10.55 76.9-9.95 76.9-8.9L76.9-8.9Q76.9-6.9 75.95-5.8L75.95-5.8Q73.8-3.15 71.32-1.45 68.85 0.25 65.7 0.25L65.7 0.25Q63.15 0.25 61.85-1.23 60.55-2.7 60.55-5.5L60.55-5.5Q60.55-6.9 61.25-10.5L61.25-10.5Q61.9-13.65 61.9-14.85L61.9-14.85Q61.9-15.65 61.35-15.65L61.35-15.65Q60.7-15.65 59.52-13.98 58.35-12.3 57.12-9.55 55.9-6.8 55.15-3.75L55.15-3.75Q54.6-1.4 53.87-0.58 53.15 0.25 51.6 0.25L51.6 0.25ZM98.44-11.05Q99.09-11.05 99.47-10.43 99.84-9.8 99.84-8.85L99.84-8.85Q99.84-7.7 99.49-7.05 99.14-6.4 98.39-5.9L98.39-5.9 88.79 0.55Q86.89 10.9 83.82 16.82 80.74 22.75 75.99 22.75L75.99 22.75Q73.44 22.75 71.84 21.18 70.24 19.6 70.24 17.05L70.24 17.05Q70.24 14.7 71.32 12.25 72.39 9.8 75.32 6.63 78.24 3.45 83.59-0.65L83.59-0.65 83.74-1.8Q84.09-3.65 84.54-7.1L84.54-7.1Q83.54-3.5 81.74-1.63 79.94 0.25 77.94 0.25L77.94 0.25Q75.69 0.25 74.27-1.83 72.84-3.9 72.84-7L72.84-7Q72.84-10.75 73.34-13.88 73.84-17 74.99-20.5L74.99-20.5Q75.49-22 76.39-22.65 77.29-23.3 79.24-23.3L79.24-23.3Q80.34-23.3 80.77-22.95 81.19-22.6 81.19-21.9L81.19-21.9Q81.19-21.5 80.64-19.2L80.64-19.2Q80.14-17.35 79.84-15.85L79.84-15.85Q79.44-13.8 79.14-11.93 78.84-10.05 78.84-8.85L78.84-8.85Q78.84-6.95 79.89-6.95L79.89-6.95Q80.64-6.95 81.77-8.45 82.89-9.95 84.17-13 85.44-16.05 86.64-20.5L86.64-20.5Q87.04-22 87.87-22.65 88.69-23.3 90.34-23.3L90.34-23.3Q91.49-23.3 91.94-23 92.39-22.7 92.39-22L92.39-22Q92.39-20.75 91.09-13.4L91.09-13.4 89.79-5.35Q93.64-8.25 97.29-10.65L97.29-10.65Q97.94-11.05 98.44-11.05L98.44-11.05ZM76.54 17.9Q77.79 17.9 79.34 15 80.89 12.1 82.44 5.35L82.44 5.35Q78.59 8.6 76.87 11.28 75.14 13.95 75.14 15.95L75.14 15.95Q75.14 16.8 75.47 17.35 75.79 17.9 76.54 17.9L76.54 17.9ZM149.69-41.5Q151.24-41.2 152.01-40.45 152.79-39.7 152.79-38.7L152.79-38.7Q152.79-37.05 151.86-36.3 150.94-35.55 148.94-35.7L148.94-35.7Q144.44-36.05 141.91-36.18 139.39-36.3 135.29-36.35L135.29-36.35Q133.44-27.15 131.89-17.85L131.89-17.85Q131.34-14.45 130.74-9.98 130.14-5.5 129.94-2.75L129.94-2.75Q129.84-1.3 128.74-0.53 127.64 0.25 126.09 0.25L126.09 0.25Q124.44 0.25 123.54-0.55 122.64-1.35 122.64-2.65L122.64-2.65Q122.64-3.85 123.01-6.63 123.39-9.4 123.89-12.45L123.89-12.45Q124.44-15.5 124.74-17.75L124.74-17.75Q125.29-21.55 125.99-25.3 126.69-29.05 127.39-32.4L127.39-32.4Q127.54-33.15 127.74-34.13 127.94-35.1 128.19-36.3L128.19-36.3Q123.29-36.15 120.49-35.5 117.69-34.85 116.51-33.68 115.34-32.5 115.34-30.65L115.34-30.65Q115.34-28.95 116.34-27.4L116.34-27.4Q116.54-27.05 116.54-26.65L116.54-26.65Q116.54-25.7 115.41-24.88 114.29-24.05 113.09-24.05L113.09-24.05Q112.24-24.05 111.69-24.55L111.69-24.55Q110.69-25.4 110.04-26.98 109.39-28.55 109.39-30.55L109.39-30.55Q109.39-34.8 112.16-37.38 114.94-39.95 120.61-41.15 126.29-42.35 135.19-42.35L135.19-42.35Q140.69-42.35 143.96-42.15 147.24-41.95 149.69-41.5L149.69-41.5ZM149.94-26.6Q147.84-26.6 146.79-27.58 145.74-28.55 145.74-30.3L145.74-30.3Q145.74-32.05 147.11-33.23 148.49-34.4 150.54-34.4L150.54-34.4Q152.39-34.4 153.54-33.5 154.69-32.6 154.69-30.95L154.69-30.95Q154.69-28.95 153.39-27.78 152.09-26.6 149.94-26.6L149.94-26.6ZM149.54 0.25Q146.29 0.25 144.81-2.05 143.34-4.35 143.34-8.15L143.34-8.15Q143.34-10.4 143.91-13.93 144.49-17.45 145.39-20.5L145.39-20.5Q145.84-22.1 146.59-22.7 147.34-23.3 148.99-23.3L148.99-23.3Q151.54-23.3 151.54-21.6L151.54-21.6Q151.54-20.35 150.59-15.8L150.59-15.8Q149.39-10.3 149.39-8.35L149.39-8.35Q149.39-6.85 149.79-6.05 150.19-5.25 151.14-5.25L151.14-5.25Q152.04-5.25 153.39-6.5 154.74-7.75 156.99-10.45L156.99-10.45Q157.59-11.15 158.34-11.15L158.34-11.15Q158.99-11.15 159.36-10.55 159.74-9.95 159.74-8.9L159.74-8.9Q159.74-6.9 158.79-5.8L158.79-5.8Q153.84 0.25 149.54 0.25L149.54 0.25ZM159.23 0.25Q157.33 0.25 156.56-1.75 155.78-3.75 155.78-8.15L155.78-8.15Q155.78-14.65 157.63-20.5L157.63-20.5Q158.08-21.95 159.11-22.63 160.13-23.3 161.98-23.3L161.98-23.3Q162.98-23.3 163.38-23.05 163.78-22.8 163.78-22.1L163.78-22.1Q163.78-21.3 163.03-18.5L163.03-18.5Q162.53-16.5 162.23-15 161.93-13.5 161.73-11.3L161.73-11.3Q163.38-15.6 165.43-18.3 167.48-21 169.46-22.15 171.43-23.3 173.08-23.3L173.08-23.3Q176.33-23.3 176.33-20.05L176.33-20.05Q176.33-19.4 175.88-16.9L175.88-16.9Q175.48-14.9 175.48-14.4L175.48-14.4Q175.48-12.65 176.73-12.65L176.73-12.65Q178.13-12.65 180.33-14.85L180.33-14.85Q180.98-15.5 181.68-15.5L181.68-15.5Q182.33-15.5 182.71-14.93 183.08-14.35 183.08-13.4L183.08-13.4Q183.08-11.55 182.08-10.5L182.08-10.5Q180.68-9.05 178.81-8.03 176.93-7 174.83-7L174.83-7Q172.18-7 170.81-8.35 169.43-9.7 169.43-12L169.43-12Q169.43-12.75 169.58-13.5L169.58-13.5Q169.68-14.5 169.68-14.85L169.68-14.85Q169.68-15.65 169.13-15.65L169.13-15.65Q168.38-15.65 167.16-13.98 165.93-12.3 164.73-9.55 163.53-6.8 162.78-3.75L162.78-3.75Q162.23-1.4 161.51-0.58 160.78 0.25 159.23 0.25L159.23 0.25ZM200.73-11.15Q201.38-11.15 201.76-10.55 202.13-9.95 202.13-8.9L202.13-8.9Q202.13-6.9 201.18-5.8L201.18-5.8Q199.33-3.55 195.96-1.65 192.58 0.25 188.73 0.25L188.73 0.25Q183.48 0.25 180.58-2.6 177.68-5.45 177.68-10.4L177.68-10.4Q177.68-13.85 179.13-16.82 180.58-19.8 183.16-21.55 185.73-23.3 188.98-23.3L188.98-23.3Q191.88-23.3 193.63-21.58 195.38-19.85 195.38-16.9L195.38-16.9Q195.38-13.45 192.91-10.98 190.43-8.5 184.53-7.05L184.53-7.05Q185.78-4.75 189.28-4.75L189.28-4.75Q191.53-4.75 194.41-6.33 197.28-7.9 199.38-10.45L199.38-10.45Q199.98-11.15 200.73-11.15L200.73-11.15ZM188.13-18.4Q186.28-18.4 185.01-16.25 183.73-14.1 183.73-11.05L183.73-11.05 183.73-10.95Q186.68-11.65 188.38-13.05 190.08-14.45 190.08-16.3L190.08-16.3Q190.08-17.25 189.56-17.82 189.03-18.4 188.13-18.4L188.13-18.4ZM250.98-41.5Q252.53-41.2 253.3-40.45 254.08-39.7 254.08-38.7L254.08-38.7Q254.08-37.05 253.15-36.3 252.23-35.55 250.23-35.7L250.23-35.7Q245.73-36.05 243.2-36.18 240.68-36.3 236.58-36.35L236.58-36.35Q234.73-27.15 233.18-17.85L233.18-17.85Q232.63-14.45 232.03-9.98 231.43-5.5 231.23-2.75L231.23-2.75Q231.13-1.3 230.03-0.53 228.93 0.25 227.38 0.25L227.38 0.25Q225.73 0.25 224.83-0.55 223.93-1.35 223.93-2.65L223.93-2.65Q223.93-3.85 224.3-6.63 224.68-9.4 225.18-12.45L225.18-12.45Q225.73-15.5 226.03-17.75L226.03-17.75Q226.58-21.55 227.28-25.3 227.98-29.05 228.68-32.4L228.68-32.4Q228.83-33.15 229.03-34.13 229.23-35.1 229.48-36.3L229.48-36.3Q224.58-36.15 221.78-35.5 218.98-34.85 217.8-33.68 216.63-32.5 216.63-30.65L216.63-30.65Q216.63-28.95 217.63-27.4L217.63-27.4Q217.83-27.05 217.83-26.65L217.83-26.65Q217.83-25.7 216.7-24.88 215.58-24.05 214.38-24.05L214.38-24.05Q213.53-24.05 212.98-24.55L212.98-24.55Q211.98-25.4 211.33-26.98 210.68-28.55 210.68-30.55L210.68-30.55Q210.68-34.8 213.45-37.38 216.23-39.95 221.9-41.15 227.58-42.35 236.48-42.35L236.48-42.35Q241.98-42.35 245.25-42.15 248.53-41.95 250.98-41.5L250.98-41.5ZM248.22 0.25Q246.32 0.25 245.55-1.75 244.77-3.75 244.77-8.15L244.77-8.15Q244.77-14.65 246.62-20.5L246.62-20.5Q247.07-21.95 248.1-22.63 249.12-23.3 250.97-23.3L250.97-23.3Q251.97-23.3 252.37-23.05 252.77-22.8 252.77-22.1L252.77-22.1Q252.77-21.3 252.02-18.5L252.02-18.5Q251.52-16.5 251.22-15 250.92-13.5 250.72-11.3L250.72-11.3Q252.37-15.6 254.42-18.3 256.47-21 258.45-22.15 260.42-23.3 262.07-23.3L262.07-23.3Q265.32-23.3 265.32-20.05L265.32-20.05Q265.32-19.4 264.87-16.9L264.87-16.9Q264.47-14.9 264.47-14.4L264.47-14.4Q264.47-12.65 265.72-12.65L265.72-12.65Q267.12-12.65 269.32-14.85L269.32-14.85Q269.97-15.5 270.67-15.5L270.67-15.5Q271.32-15.5 271.7-14.93 272.07-14.35 272.07-13.4L272.07-13.4Q272.07-11.55 271.07-10.5L271.07-10.5Q269.67-9.05 267.8-8.03 265.92-7 263.82-7L263.82-7Q261.17-7 259.8-8.35 258.42-9.7 258.42-12L258.42-12Q258.42-12.75 258.57-13.5L258.57-13.5Q258.67-14.5 258.67-14.85L258.67-14.85Q258.67-15.65 258.12-15.65L258.12-15.65Q257.37-15.65 256.15-13.98 254.92-12.3 253.72-9.55 252.52-6.8 251.77-3.75L251.77-3.75Q251.22-1.4 250.5-0.58 249.77 0.25 248.22 0.25L248.22 0.25ZM289.72-11.15Q290.37-11.15 290.75-10.55 291.12-9.95 291.12-8.9L291.12-8.9Q291.12-6.9 290.17-5.8L290.17-5.8Q288.32-3.55 284.95-1.65 281.57 0.25 277.72 0.25L277.72 0.25Q272.47 0.25 269.57-2.6 266.67-5.45 266.67-10.4L266.67-10.4Q266.67-13.85 268.12-16.82 269.57-19.8 272.15-21.55 274.72-23.3 277.97-23.3L277.97-23.3Q280.87-23.3 282.62-21.58 284.37-19.85 284.37-16.9L284.37-16.9Q284.37-13.45 281.9-10.98 279.42-8.5 273.52-7.05L273.52-7.05Q274.77-4.75 278.27-4.75L278.27-4.75Q280.52-4.75 283.4-6.33 286.27-7.9 288.37-10.45L288.37-10.45Q288.97-11.15 289.72-11.15L289.72-11.15ZM277.12-18.4Q275.27-18.4 274-16.25 272.72-14.1 272.72-11.05L272.72-11.05 272.72-10.95Q275.67-11.65 277.37-13.05 279.07-14.45 279.07-16.3L279.07-16.3Q279.07-17.25 278.55-17.82 278.02-18.4 277.12-18.4L277.12-18.4ZM315.97-11.15Q316.62-11.15 316.99-10.55 317.37-9.95 317.37-8.9L317.37-8.9Q317.37-6.9 316.42-5.8L316.42-5.8Q314.17-3.05 311.87-1.4 309.57 0.25 306.42 0.25L306.42 0.25Q302.57 0.25 300.22-1.95 297.87-4.15 297.87-7.8L297.87-7.8Q297.87-9.75 299.87-10.6L299.87-10.6Q302.07-11.55 303.02-12.63 303.97-13.7 303.97-15.25L303.97-15.25Q303.97-16.15 303.59-16.6 303.22-17.05 302.67-17.05L302.67-17.05Q301.32-17.05 299.69-15.1 298.07-13.15 296.67-10.08 295.27-7 294.47-3.75L294.47-3.75Q293.92-1.4 293.19-0.58 292.47 0.25 290.92 0.25L290.92 0.25Q289.37 0.25 288.64-0.88 287.92-2 287.67-4.35 287.42-6.7 287.42-11.25L287.42-11.25Q287.42-18.95 288.99-27.3 290.57-35.65 293.64-41.33 296.72-47 301.02-47L301.02-47Q303.32-47 304.74-45.03 306.17-43.05 306.17-39.9L306.17-39.9Q306.17-34.85 303.22-29.43 300.27-24 293.62-16.75L293.62-16.75Q293.47-14.15 293.47-11.4L293.47-11.4Q295.87-17.65 298.97-20.48 302.07-23.3 304.77-23.3L304.77-23.3Q307.27-23.3 308.79-21.6 310.32-19.9 310.32-17.4L310.32-17.4Q310.32-14.65 308.92-12.35 307.52-10.05 304.12-8.25L304.12-8.25Q304.32-6.9 305.34-6.08 306.37-5.25 307.82-5.25L307.82-5.25Q309.37-5.25 310.82-6.45 312.27-7.65 314.62-10.45L314.62-10.45Q315.22-11.15 315.97-11.15L315.97-11.15ZM299.97-42.05Q299.07-42.05 297.97-39.48 296.87-36.9 295.84-32.52 294.82-28.15 294.17-23L294.17-23Q297.27-26.65 299.29-30.95 301.32-35.25 301.32-38.75L301.32-38.75Q301.32-40.35 300.97-41.2 300.62-42.05 299.97-42.05L299.97-42.05Z" opacity="1" transform="matrix(1,0,0,1,0,0)" fill="#000000" class="slogan-text-1" data-fill-palette-color="secondary" id="text-1"></path></svg></g></svg></g></svg></g></svg></g><g></g></svg></g><defs></defs></svg><rect width="395.52" height="124.0567943407446" fill="none" stroke="none" visibility="hidden"></rect></g></svg></g></svg>